<svg xmlns="http://www.w3.org/2000/svg" xmlns:xlink="http://www.w3.org/1999/xlink" width="192" zoomAndPan="magnify" viewBox="0 0 144 143.999998" height="192" preserveAspectRatio="xMidYMid meet" version="1.0"><defs><clipPath id="b306f5709a"><path d="M 53 51.648438 L 91 51.648438 L 91 92.148438 L 53 92.148438 Z M 53 51.648438 " clip-rule="nonzero"/></clipPath><clipPath id="f82fb3c624"><path d="M 82 51.648438 L 92.148438 51.648438 L 92.148438 61 L 82 61 Z M 82 51.648438 " clip-rule="nonzero"/></clipPath><clipPath id="e91a775046"><path d="M 51.648438 51.648438 L 62 51.648438 L 62 61 L 51.648438 61 Z M 51.648438 51.648438 " clip-rule="nonzero"/></clipPath></defs><g clip-path="url(#b306f5709a)"><path fill="#013220" d="M 73.691406 55.125 L 73.691406 53.34375 C 73.691406 53.117188 73.648438 52.902344 73.5625 52.695312 C 73.476562 52.488281 73.355469 52.304688 73.195312 52.144531 C 73.035156 51.984375 72.855469 51.863281 72.644531 51.777344 C 72.4375 51.691406 72.222656 51.648438 71.996094 51.648438 C 71.773438 51.648438 71.554688 51.691406 71.347656 51.777344 C 71.140625 51.863281 70.957031 51.984375 70.796875 52.144531 C 70.640625 52.304688 70.515625 52.488281 70.429688 52.695312 C 70.34375 52.902344 70.300781 53.117188 70.300781 53.34375 L 70.300781 55.125 C 68.59375 55.277344 66.941406 55.660156 65.339844 56.269531 C 63.738281 56.878906 62.246094 57.695312 60.871094 58.714844 C 59.496094 59.738281 58.28125 60.925781 57.234375 62.28125 C 56.183594 63.636719 55.339844 65.109375 54.699219 66.699219 C 54.058594 68.289062 53.640625 69.933594 53.457031 71.636719 C 53.269531 73.34375 53.316406 75.039062 53.597656 76.730469 C 53.878906 78.421875 54.382812 80.042969 55.113281 81.59375 C 55.84375 83.144531 56.765625 84.566406 57.890625 85.863281 C 57.445312 86.082031 57.042969 86.359375 56.679688 86.695312 C 56.316406 87.03125 56.011719 87.410156 55.757812 87.835938 C 55.503906 88.261719 55.316406 88.710938 55.195312 89.191406 C 55.070312 89.671875 55.019531 90.15625 55.039062 90.652344 C 55.039062 90.875 55.082031 91.09375 55.167969 91.300781 C 55.253906 91.507812 55.375 91.691406 55.535156 91.851562 C 55.695312 92.007812 55.878906 92.132812 56.085938 92.21875 C 56.292969 92.304688 56.511719 92.347656 56.734375 92.347656 C 56.960938 92.347656 57.175781 92.304688 57.382812 92.21875 C 57.589844 92.132812 57.773438 92.007812 57.933594 91.851562 C 58.09375 91.691406 58.214844 91.507812 58.300781 91.300781 C 58.386719 91.09375 58.429688 90.875 58.429688 90.652344 C 58.421875 90.390625 58.464844 90.136719 58.554688 89.890625 C 58.644531 89.644531 58.78125 89.425781 58.953125 89.230469 C 59.128906 89.039062 59.335938 88.882812 59.570312 88.769531 C 59.804688 88.652344 60.050781 88.585938 60.3125 88.566406 C 60.429688 88.542969 60.542969 88.507812 60.652344 88.460938 C 61.457031 89.085938 62.3125 89.640625 63.210938 90.125 C 64.109375 90.613281 65.039062 91.019531 66.003906 91.351562 C 66.972656 91.679688 67.957031 91.929688 68.964844 92.097656 C 69.972656 92.265625 70.984375 92.347656 72.003906 92.347656 C 73.027344 92.347656 74.039062 92.265625 75.046875 92.097656 C 76.054688 91.929688 77.039062 91.679688 78.003906 91.351562 C 78.972656 91.019531 79.902344 90.613281 80.800781 90.125 C 81.699219 89.640625 82.550781 89.085938 83.359375 88.460938 C 83.457031 88.507812 83.5625 88.542969 83.667969 88.570312 C 83.929688 88.585938 84.179688 88.652344 84.414062 88.769531 C 84.648438 88.882812 84.855469 89.035156 85.035156 89.230469 C 85.210938 89.421875 85.34375 89.644531 85.4375 89.890625 C 85.527344 90.132812 85.570312 90.386719 85.5625 90.652344 C 85.5625 90.875 85.605469 91.09375 85.691406 91.300781 C 85.777344 91.507812 85.902344 91.691406 86.058594 91.851562 C 86.21875 92.007812 86.402344 92.132812 86.609375 92.21875 C 86.816406 92.304688 87.035156 92.347656 87.257812 92.347656 C 87.484375 92.347656 87.699219 92.304688 87.90625 92.21875 C 88.117188 92.132812 88.300781 92.007812 88.457031 91.851562 C 88.617188 91.691406 88.738281 91.507812 88.824219 91.300781 C 88.910156 91.09375 88.953125 90.875 88.953125 90.652344 C 88.972656 90.15625 88.921875 89.671875 88.800781 89.191406 C 88.675781 88.710938 88.488281 88.261719 88.238281 87.835938 C 87.984375 87.410156 87.675781 87.03125 87.3125 86.695312 C 86.949219 86.359375 86.546875 86.082031 86.105469 85.863281 C 87.226562 84.566406 88.152344 83.144531 88.882812 81.59375 C 89.609375 80.042969 90.117188 78.421875 90.398438 76.730469 C 90.679688 75.039062 90.726562 73.34375 90.539062 71.636719 C 90.351562 69.933594 89.9375 68.289062 89.296875 66.699219 C 88.652344 65.109375 87.808594 63.636719 86.761719 62.28125 C 85.710938 60.925781 84.5 59.738281 83.125 58.714844 C 81.746094 57.695312 80.257812 56.878906 78.65625 56.269531 C 77.054688 55.660156 75.398438 55.277344 73.691406 55.125 Z M 56.734375 73.691406 C 56.734375 72.691406 56.832031 71.699219 57.027344 70.714844 C 57.222656 69.730469 57.511719 68.777344 57.898438 67.851562 C 58.28125 66.925781 58.75 66.046875 59.308594 65.214844 C 59.863281 64.378906 60.496094 63.609375 61.203125 62.902344 C 61.914062 62.191406 62.683594 61.558594 63.519531 61.003906 C 64.351562 60.445312 65.230469 59.976562 66.15625 59.59375 C 67.082031 59.207031 68.035156 58.917969 69.019531 58.722656 C 70.003906 58.527344 70.996094 58.429688 71.996094 58.429688 C 73 58.429688 73.992188 58.527344 74.972656 58.722656 C 75.957031 58.917969 76.910156 59.207031 77.835938 59.59375 C 78.761719 59.976562 79.644531 60.445312 80.476562 61.003906 C 81.308594 61.558594 82.082031 62.191406 82.789062 62.902344 C 83.496094 63.609375 84.128906 64.378906 84.6875 65.214844 C 85.242188 66.046875 85.714844 66.925781 86.097656 67.851562 C 86.480469 68.777344 86.769531 69.730469 86.964844 70.714844 C 87.160156 71.699219 87.257812 72.691406 87.257812 73.691406 C 87.257812 74.695312 87.160156 75.6875 86.964844 76.671875 C 86.769531 77.652344 86.480469 78.609375 86.097656 79.535156 C 85.714844 80.460938 85.242188 81.339844 84.6875 82.171875 C 84.128906 83.003906 83.496094 83.777344 82.789062 84.484375 C 82.082031 85.195312 81.308594 85.824219 80.476562 86.382812 C 79.644531 86.941406 78.761719 87.410156 77.835938 87.792969 C 76.910156 88.175781 75.957031 88.464844 74.972656 88.660156 C 73.992188 88.855469 73 88.953125 71.996094 88.953125 C 70.996094 88.953125 70.003906 88.855469 69.019531 88.660156 C 68.039062 88.460938 67.085938 88.171875 66.160156 87.789062 C 65.234375 87.40625 64.355469 86.933594 63.523438 86.378906 C 62.6875 85.820312 61.917969 85.1875 61.210938 84.480469 C 60.503906 83.769531 59.871094 83 59.3125 82.167969 C 58.753906 81.335938 58.285156 80.457031 57.902344 79.53125 C 57.519531 78.605469 57.226562 77.652344 57.03125 76.667969 C 56.835938 75.6875 56.734375 74.695312 56.734375 73.691406 Z M 56.734375 73.691406 " fill-opacity="1" fill-rule="nonzero"/></g><g clip-path="url(#f82fb3c624)"><path fill="#013220" d="M 84.230469 51.648438 C 84.007812 51.648438 83.789062 51.691406 83.582031 51.777344 C 83.375 51.863281 83.191406 51.984375 83.03125 52.144531 C 82.875 52.304688 82.75 52.488281 82.664062 52.695312 C 82.578125 52.902344 82.535156 53.117188 82.535156 53.34375 C 82.535156 53.566406 82.578125 53.785156 82.664062 53.992188 C 82.75 54.199219 82.875 54.382812 83.03125 54.542969 C 83.191406 54.703125 83.375 54.824219 83.582031 54.910156 C 83.789062 54.996094 84.007812 55.039062 84.230469 55.039062 C 84.527344 55.015625 84.824219 55.023438 85.117188 55.0625 C 85.410156 55.097656 85.699219 55.164062 85.980469 55.261719 C 86.261719 55.355469 86.527344 55.476562 86.785156 55.628906 C 87.039062 55.777344 87.277344 55.953125 87.5 56.148438 C 87.71875 56.347656 87.917969 56.566406 88.09375 56.804688 C 88.269531 57.042969 88.421875 57.296875 88.546875 57.566406 C 88.671875 57.835938 88.769531 58.113281 88.835938 58.402344 C 88.90625 58.691406 88.945312 58.980469 88.953125 59.277344 C 88.953125 59.503906 88.996094 59.71875 89.085938 59.925781 C 89.171875 60.136719 89.292969 60.320312 89.453125 60.476562 C 89.609375 60.636719 89.792969 60.757812 90 60.84375 C 90.210938 60.929688 90.425781 60.972656 90.652344 60.972656 C 90.875 60.972656 91.09375 60.929688 91.300781 60.84375 C 91.507812 60.757812 91.691406 60.636719 91.851562 60.476562 C 92.007812 60.320312 92.132812 60.136719 92.21875 59.925781 C 92.304688 59.71875 92.347656 59.503906 92.347656 59.277344 C 92.335938 58.761719 92.273438 58.246094 92.160156 57.742188 C 92.046875 57.234375 91.886719 56.746094 91.675781 56.273438 C 91.464844 55.796875 91.207031 55.347656 90.910156 54.925781 C 90.609375 54.503906 90.269531 54.113281 89.890625 53.757812 C 89.515625 53.402344 89.105469 53.089844 88.664062 52.816406 C 88.222656 52.542969 87.761719 52.316406 87.273438 52.132812 C 86.789062 51.953125 86.289062 51.820312 85.777344 51.738281 C 85.265625 51.65625 84.75 51.625 84.230469 51.648438 Z M 84.230469 51.648438 " fill-opacity="1" fill-rule="nonzero"/></g><g clip-path="url(#e91a775046)"><path fill="#013220" d="M 55.039062 59.277344 C 55.046875 58.980469 55.085938 58.691406 55.15625 58.402344 C 55.226562 58.113281 55.320312 57.835938 55.445312 57.566406 C 55.570312 57.296875 55.722656 57.042969 55.898438 56.804688 C 56.074219 56.566406 56.273438 56.347656 56.496094 56.148438 C 56.714844 55.953125 56.953125 55.777344 57.210938 55.628906 C 57.464844 55.476562 57.734375 55.355469 58.015625 55.261719 C 58.296875 55.164062 58.582031 55.097656 58.878906 55.0625 C 59.171875 55.023438 59.464844 55.015625 59.761719 55.039062 C 59.988281 55.039062 60.203125 54.996094 60.410156 54.910156 C 60.617188 54.824219 60.800781 54.703125 60.960938 54.542969 C 61.121094 54.382812 61.242188 54.199219 61.328125 53.992188 C 61.414062 53.785156 61.457031 53.566406 61.457031 53.34375 C 61.457031 53.117188 61.414062 52.902344 61.328125 52.695312 C 61.242188 52.488281 61.121094 52.304688 60.960938 52.144531 C 60.800781 51.984375 60.617188 51.863281 60.410156 51.777344 C 60.203125 51.691406 59.988281 51.648438 59.761719 51.648438 C 59.242188 51.625 58.726562 51.65625 58.214844 51.738281 C 57.703125 51.820312 57.207031 51.953125 56.71875 52.132812 C 56.234375 52.316406 55.769531 52.542969 55.328125 52.816406 C 54.890625 53.089844 54.480469 53.402344 54.101562 53.757812 C 53.722656 54.113281 53.386719 54.503906 53.085938 54.925781 C 52.785156 55.347656 52.53125 55.796875 52.320312 56.273438 C 52.109375 56.746094 51.945312 57.234375 51.832031 57.742188 C 51.71875 58.246094 51.660156 58.761719 51.648438 59.277344 C 51.648438 59.503906 51.691406 59.71875 51.777344 59.925781 C 51.863281 60.136719 51.984375 60.320312 52.144531 60.476562 C 52.304688 60.636719 52.488281 60.757812 52.695312 60.84375 C 52.902344 60.929688 53.117188 60.972656 53.34375 60.972656 C 53.566406 60.972656 53.785156 60.929688 53.992188 60.84375 C 54.199219 60.757812 54.382812 60.636719 54.542969 60.476562 C 54.703125 60.320312 54.824219 60.136719 54.910156 59.925781 C 54.996094 59.71875 55.039062 59.503906 55.039062 59.277344 Z M 55.039062 59.277344 " fill-opacity="1" fill-rule="nonzero"/></g><path fill="#013220" d="M 73.691406 71.292969 L 73.691406 63.519531 C 73.691406 63.292969 73.648438 63.078125 73.5625 62.867188 C 73.476562 62.660156 73.355469 62.476562 73.195312 62.320312 C 73.035156 62.160156 72.855469 62.039062 72.644531 61.953125 C 72.4375 61.863281 72.222656 61.820312 71.996094 61.820312 C 71.773438 61.820312 71.554688 61.863281 71.347656 61.953125 C 71.140625 62.039062 70.957031 62.160156 70.796875 62.320312 C 70.640625 62.476562 70.515625 62.660156 70.429688 62.867188 C 70.34375 63.078125 70.300781 63.292969 70.300781 63.519531 L 70.300781 71.996094 C 70.300781 72.464844 70.46875 72.863281 70.796875 73.195312 L 75.886719 78.285156 C 76.046875 78.4375 76.230469 78.554688 76.433594 78.636719 C 76.640625 78.722656 76.855469 78.761719 77.078125 78.757812 C 77.300781 78.757812 77.515625 78.714844 77.71875 78.628906 C 77.925781 78.542969 78.105469 78.417969 78.261719 78.261719 C 78.417969 78.105469 78.542969 77.925781 78.628906 77.71875 C 78.714844 77.515625 78.757812 77.300781 78.757812 77.078125 C 78.761719 76.855469 78.722656 76.640625 78.636719 76.433594 C 78.554688 76.230469 78.4375 76.046875 78.285156 75.886719 Z M 73.691406 71.292969 " fill-opacity="1" fill-rule="nonzero"/></svg>