<svg xmlns="http://www.w3.org/2000/svg" xmlns:xlink="http://www.w3.org/1999/xlink" width="192" zoomAndPan="magnify" viewBox="0 0 144 143.999998" height="192" preserveAspectRatio="xMidYMid meet" version="1.0"><defs><clipPath id="a327c23fc5"><path d="M 43.199219 43.199219 L 100.949219 43.199219 L 100.949219 100.949219 L 43.199219 100.949219 Z M 43.199219 43.199219 " clip-rule="nonzero"/></clipPath></defs><g clip-path="url(#a327c23fc5)"><path fill="#ffffff" d="M 100.796875 72 C 100.796875 87.886719 87.886719 100.796875 72 100.796875 C 56.113281 100.796875 43.199219 87.886719 43.199219 72 C 43.199219 56.113281 56.113281 43.199219 72 43.199219 C 73.75 43.199219 75.527344 43.367188 77.230469 43.679688 C 78.527344 43.921875 79.390625 45.167969 79.152344 46.464844 C 78.910156 47.761719 77.664062 48.625 76.367188 48.382812 C 74.949219 48.121094 73.460938 48 72 48 C 58.773438 48 48 58.773438 48 72 C 48 85.222656 58.773438 95.996094 72 95.996094 C 85.222656 95.996094 95.996094 85.222656 95.996094 72 C 95.996094 70.535156 95.855469 69.070312 95.613281 67.632812 C 95.375 66.335938 96.238281 65.085938 97.535156 64.847656 C 98.855469 64.605469 100.078125 65.472656 100.316406 66.765625 C 100.628906 68.472656 100.796875 70.246094 100.796875 72 Z M 74.0625 57.742188 C 75.382812 57.933594 76.582031 57.023438 76.773438 55.703125 C 76.964844 54.382812 76.054688 53.183594 74.734375 52.992188 C 73.824219 52.871094 72.910156 52.800781 72 52.800781 C 61.414062 52.800781 52.800781 61.414062 52.800781 72 C 52.800781 82.582031 61.414062 91.199219 72 91.199219 C 82.582031 91.199219 91.199219 82.582031 91.199219 72 C 91.199219 71.085938 91.125 70.175781 91.007812 69.261719 C 90.8125 67.941406 89.613281 67.03125 88.292969 67.222656 C 86.972656 67.414062 86.0625 68.613281 86.253906 69.933594 C 86.351562 70.605469 86.398438 71.304688 86.398438 72 C 86.398438 79.941406 79.941406 86.398438 72 86.398438 C 64.054688 86.398438 57.597656 79.941406 57.597656 72 C 57.597656 64.054688 64.054688 57.597656 72 57.597656 C 72.695312 57.597656 73.390625 57.648438 74.0625 57.742188 Z M 68.808594 68.421875 C 69.789062 67.535156 69.886719 66.023438 69 65.039062 C 68.109375 64.054688 66.597656 63.960938 65.613281 64.847656 C 63.574219 66.671875 62.421875 69.285156 62.421875 72 C 62.421875 77.300781 66.71875 81.597656 72.023438 81.597656 C 74.757812 81.597656 77.351562 80.421875 79.175781 78.40625 C 80.0625 77.421875 79.964844 75.910156 78.984375 75.023438 C 78 74.132812 76.488281 74.230469 75.597656 75.214844 C 74.6875 76.222656 73.390625 76.824219 72.023438 76.824219 C 69.382812 76.824219 67.222656 74.664062 67.222656 72.023438 C 67.222656 70.65625 67.800781 69.359375 68.832031 68.445312 Z M 72.71875 67.894531 C 71.78125 68.832031 71.78125 70.34375 72.71875 71.277344 C 73.199219 71.757812 73.796875 71.976562 74.421875 71.976562 C 75.046875 71.976562 75.648438 71.734375 76.125 71.277344 L 87.429688 59.976562 L 93.644531 59.976562 C 94.292969 59.976562 94.894531 59.710938 95.351562 59.28125 L 100.148438 54.480469 C 100.84375 53.785156 101.039062 52.75 100.675781 51.863281 C 100.316406 50.976562 99.429688 50.375 98.46875 50.375 L 93.671875 50.375 L 93.671875 45.601562 C 93.671875 44.640625 93.09375 43.753906 92.183594 43.390625 C 91.269531 43.007812 90.261719 43.222656 89.566406 43.921875 L 84.765625 48.71875 C 84.308594 49.175781 84.070312 49.777344 84.070312 50.421875 L 84.070312 56.640625 L 72.765625 67.941406 Z M 72.71875 67.894531 " fill-opacity="1" fill-rule="nonzero"/></g></svg>