<svg xmlns="http://www.w3.org/2000/svg" xmlns:xlink="http://www.w3.org/1999/xlink" width="192" zoomAndPan="magnify" viewBox="0 0 144 143.999998" height="192" preserveAspectRatio="xMidYMid meet" version="1.0"><defs><clipPath id="a95d9aa290"><path d="M 45 43.199219 L 99 43.199219 L 99 100.949219 L 45 100.949219 Z M 45 43.199219 " clip-rule="nonzero"/></clipPath></defs><g clip-path="url(#a95d9aa290)"><path fill="#013220" d="M 78.097656 56.332031 C 80.96875 53.882812 84 50.21875 84 45.601562 L 84 43.199219 L 60 43.199219 L 60 45.601562 C 60 50.21875 63.03125 53.882812 65.902344 56.332031 C 54.609375 60.355469 45.601562 74.695312 45.601562 86.398438 C 45.601562 94.339844 52.058594 100.796875 60 100.796875 L 84 100.796875 C 91.941406 100.796875 98.398438 94.339844 98.398438 86.398438 C 98.398438 74.695312 89.386719 60.355469 78.097656 56.332031 Z M 65.296875 48 L 78.695312 48 C 77.445312 51.015625 74.160156 53.542969 72.015625 54.84375 C 70.210938 53.742188 66.613281 51.214844 65.296875 48 Z M 84 95.996094 L 60 95.996094 C 54.707031 95.996094 50.398438 91.691406 50.398438 86.398438 C 50.398438 74.011719 61.414062 60.039062 71.992188 60.039062 C 82.574219 60.039062 93.597656 74.015625 93.597656 86.398438 C 93.597656 91.691406 89.292969 95.996094 84 95.996094 Z M 67.199219 74.398438 C 67.199219 75.304688 67.847656 76.074219 68.746094 76.222656 L 76.046875 77.4375 C 79.261719 77.972656 81.601562 80.734375 81.601562 84 C 81.601562 87.96875 78.371094 91.199219 74.402344 91.199219 L 74.402344 93.597656 L 69.601562 93.597656 L 69.601562 91.199219 C 65.632812 91.199219 62.402344 87.96875 62.402344 84 L 67.203125 84 C 67.203125 85.320312 68.277344 86.398438 69.601562 86.398438 L 74.402344 86.398438 C 75.722656 86.398438 76.800781 85.320312 76.800781 84 C 76.800781 83.089844 76.152344 82.324219 75.253906 82.175781 L 67.953125 80.957031 C 64.738281 80.421875 62.398438 77.664062 62.398438 74.398438 C 62.398438 70.429688 65.628906 67.199219 69.597656 67.199219 L 69.597656 64.800781 L 74.398438 64.800781 L 74.398438 67.199219 C 78.367188 67.199219 81.597656 70.429688 81.597656 74.398438 L 76.796875 74.398438 C 76.796875 73.078125 75.722656 72 74.398438 72 L 69.597656 72 C 68.277344 72 67.199219 73.078125 67.199219 74.398438 Z M 67.199219 74.398438 " fill-opacity="1" fill-rule="nonzero"/></g></svg>