<svg xmlns="http://www.w3.org/2000/svg" xmlns:xlink="http://www.w3.org/1999/xlink" width="192" zoomAndPan="magnify" viewBox="0 0 144 143.999998" height="192" preserveAspectRatio="xMidYMid meet" version="1.0"><defs><clipPath id="759df88575"><path d="M 48 43.199219 L 96 43.199219 L 96 100.949219 L 48 100.949219 Z M 48 43.199219 " clip-rule="nonzero"/></clipPath></defs><g clip-path="url(#759df88575)"><path fill="#013220" d="M 71.875 100.820312 L 71.023438 100.441406 C 70.078125 100.027344 48 90.054688 48 72 L 48 56.34375 C 48 55.589844 48.117188 54.851562 48.347656 54.136719 C 48.582031 53.421875 48.917969 52.757812 49.359375 52.148438 C 49.800781 51.535156 50.328125 51.007812 50.9375 50.566406 C 51.542969 50.121094 52.207031 49.78125 52.921875 49.546875 L 72 43.222656 L 91.074219 49.546875 C 91.792969 49.78125 92.453125 50.121094 93.0625 50.566406 C 93.671875 51.007812 94.195312 51.535156 94.636719 52.148438 C 95.078125 52.757812 95.417969 53.421875 95.648438 54.136719 C 95.882812 54.855469 95.996094 55.589844 95.996094 56.34375 L 95.996094 72 C 95.996094 92.582031 73.707031 100.210938 72.757812 100.527344 Z M 72 48.253906 L 54.441406 54.078125 C 53.949219 54.238281 53.554688 54.523438 53.253906 54.941406 C 52.949219 55.359375 52.800781 55.828125 52.800781 56.34375 L 52.800781 72 C 52.800781 85.183594 68.253906 93.738281 72.113281 95.664062 C 75.960938 94.117188 91.199219 87.03125 91.199219 72 L 91.199219 56.34375 C 91.199219 55.828125 91.046875 55.359375 90.746094 54.941406 C 90.441406 54.523438 90.046875 54.238281 89.554688 54.078125 Z M 72 48.253906 " fill-opacity="1" fill-rule="nonzero"/></g><path fill="#013220" d="M 69.867188 78.097656 L 69.785156 78.097656 C 69.171875 78.089844 68.585938 77.960938 68.023438 77.710938 C 67.464844 77.460938 66.976562 77.109375 66.558594 76.660156 L 61.023438 70.898438 L 64.480469 67.582031 L 69.867188 73.199219 L 82.300781 60.765625 L 85.695312 64.160156 L 73.070312 76.785156 C 72.183594 77.667969 71.117188 78.105469 69.867188 78.097656 Z M 69.867188 78.097656 " fill-opacity="1" fill-rule="nonzero"/></svg>