<svg xmlns="http://www.w3.org/2000/svg" xmlns:xlink="http://www.w3.org/1999/xlink" width="192" zoomAndPan="magnify" viewBox="0 0 144 143.999998" height="192" preserveAspectRatio="xMidYMid meet" version="1.0"><defs><clipPath id="74c123cb0c"><path d="M 42.703125 43 L 101.203125 43 L 101.203125 100 L 42.703125 100 Z M 42.703125 43 " clip-rule="nonzero"/></clipPath></defs><g clip-path="url(#74c123cb0c)"><path fill="#ffffff" d="M 45.941406 72.976562 L 54.632812 79.324219 L 51.332031 89.546875 C 51.066406 90.339844 50.929688 91.152344 50.925781 91.988281 C 50.925781 92.824219 51.050781 93.640625 51.3125 94.4375 C 51.574219 95.230469 51.953125 95.964844 52.449219 96.636719 C 52.949219 97.308594 53.539062 97.886719 54.222656 98.367188 C 54.894531 98.863281 55.628906 99.242188 56.421875 99.5 C 57.21875 99.757812 58.035156 99.886719 58.871094 99.882812 C 59.707031 99.878906 60.519531 99.742188 61.3125 99.476562 C 62.101562 99.207031 62.832031 98.824219 63.5 98.320312 L 72 92.066406 L 80.5 98.3125 C 81.171875 98.804688 81.902344 99.183594 82.691406 99.445312 C 83.484375 99.707031 84.296875 99.839844 85.128906 99.84375 C 85.960938 99.847656 86.777344 99.722656 87.570312 99.46875 C 88.363281 99.214844 89.097656 98.84375 89.773438 98.359375 C 90.449219 97.871094 91.035156 97.289062 91.527344 96.617188 C 92.019531 95.945312 92.394531 95.214844 92.652344 94.421875 C 92.914062 93.628906 93.042969 92.816406 93.046875 91.984375 C 93.046875 91.152344 92.921875 90.339844 92.664062 89.546875 L 89.363281 79.324219 L 98.054688 72.976562 C 98.726562 72.484375 99.304688 71.902344 99.792969 71.230469 C 100.277344 70.558594 100.648438 69.828125 100.902344 69.035156 C 101.160156 68.246094 101.285156 67.433594 101.285156 66.605469 C 101.285156 65.773438 101.152344 64.964844 100.898438 64.175781 C 100.640625 63.386719 100.265625 62.65625 99.777344 61.984375 C 99.289062 61.3125 98.710938 60.730469 98.039062 60.242188 C 97.367188 59.753906 96.636719 59.382812 95.847656 59.125 C 95.058594 58.867188 94.246094 58.738281 93.417969 58.738281 L 82.742188 58.738281 L 79.5 48.640625 C 79.246094 47.84375 78.875 47.109375 78.386719 46.433594 C 77.898438 45.753906 77.316406 45.171875 76.640625 44.679688 C 75.96875 44.1875 75.234375 43.8125 74.441406 43.554688 C 73.648438 43.296875 72.832031 43.164062 72 43.164062 C 71.164062 43.164062 70.351562 43.296875 69.558594 43.554688 C 68.761719 43.8125 68.03125 44.1875 67.355469 44.679688 C 66.679688 45.171875 66.101562 45.753906 65.609375 46.433594 C 65.121094 47.109375 64.75 47.84375 64.496094 48.640625 L 61.257812 58.738281 L 50.589844 58.738281 C 49.761719 58.738281 48.949219 58.867188 48.160156 59.125 C 47.371094 59.382812 46.640625 59.753906 45.96875 60.242188 C 45.296875 60.730469 44.71875 61.3125 44.230469 61.984375 C 43.742188 62.65625 43.367188 63.386719 43.109375 64.175781 C 42.851562 64.964844 42.722656 65.773438 42.722656 66.605469 C 42.722656 67.433594 42.847656 68.246094 43.105469 69.035156 C 43.359375 69.828125 43.730469 70.558594 44.214844 71.230469 C 44.703125 71.902344 45.28125 72.484375 45.953125 72.976562 Z M 45.941406 72.976562 " fill-opacity="1" fill-rule="nonzero"/></g></svg>