<svg xmlns="http://www.w3.org/2000/svg" xmlns:xlink="http://www.w3.org/1999/xlink" width="192" zoomAndPan="magnify" viewBox="0 0 144 143.999998" height="192" preserveAspectRatio="xMidYMid meet" version="1.0"><defs><clipPath id="81f9acdf4e"><path d="M 40.320312 40.320312 L 103.320312 40.320312 L 103.320312 103.320312 L 40.320312 103.320312 Z M 40.320312 40.320312 " clip-rule="nonzero"/></clipPath></defs><g clip-path="url(#81f9acdf4e)"><path fill="#013220" d="M 45.28125 87.511719 C 42.964844 90.710938 41.351562 94.230469 40.4375 98.070312 C 40.351562 98.449219 40.3125 98.832031 40.324219 99.222656 C 40.335938 99.609375 40.394531 99.992188 40.5 100.363281 C 40.609375 100.738281 40.761719 101.089844 40.960938 101.425781 C 41.15625 101.757812 41.394531 102.0625 41.667969 102.339844 C 41.941406 102.613281 42.246094 102.847656 42.582031 103.046875 C 42.914062 103.242188 43.269531 103.394531 43.644531 103.503906 C 44.015625 103.609375 44.398438 103.667969 44.785156 103.679688 C 45.171875 103.691406 45.558594 103.652344 45.933594 103.566406 C 49.769531 102.652344 53.285156 101.039062 56.476562 98.726562 C 56.847656 98.359375 57.175781 97.957031 57.464844 97.527344 C 57.753906 97.09375 58 96.636719 58.199219 96.15625 C 58.398438 95.675781 58.546875 95.179688 58.648438 94.671875 C 58.75 94.160156 58.800781 93.644531 58.804688 93.125 C 58.804688 92.605469 58.753906 92.089844 58.652344 91.578125 C 58.550781 91.070312 58.402344 90.574219 58.203125 90.09375 C 58.003906 89.609375 57.757812 89.15625 57.46875 88.722656 C 57.183594 88.289062 56.855469 87.886719 56.484375 87.519531 C 56.117188 87.152344 55.71875 86.824219 55.285156 86.535156 C 54.855469 86.246094 54.398438 86 53.917969 85.800781 C 53.4375 85.601562 52.941406 85.449219 52.429688 85.347656 C 51.921875 85.246094 51.40625 85.195312 50.886719 85.195312 C 50.363281 85.195312 49.847656 85.246094 49.339844 85.347656 C 48.828125 85.449219 48.332031 85.597656 47.851562 85.796875 C 47.371094 85.996094 46.914062 86.238281 46.480469 86.527344 C 46.050781 86.816406 45.648438 87.144531 45.28125 87.511719 Z M 52.746094 94.980469 C 50.605469 96.351562 48.320312 97.390625 45.882812 98.105469 C 46.597656 95.667969 47.640625 93.382812 49.007812 91.242188 C 49.257812 91 49.542969 90.816406 49.863281 90.6875 C 50.183594 90.5625 50.519531 90.5 50.863281 90.5 C 51.210938 90.503906 51.542969 90.574219 51.863281 90.707031 C 52.179688 90.839844 52.464844 91.03125 52.707031 91.273438 C 52.953125 91.519531 53.140625 91.800781 53.277344 92.121094 C 53.410156 92.4375 53.476562 92.773438 53.480469 93.117188 C 53.484375 93.464844 53.421875 93.796875 53.292969 94.121094 C 53.164062 94.441406 52.980469 94.726562 52.742188 94.976562 Z M 87.835938 62.757812 C 87.835938 63.191406 87.792969 63.621094 87.707031 64.046875 C 87.625 64.46875 87.496094 64.882812 87.332031 65.285156 C 87.167969 65.683594 86.964844 66.0625 86.722656 66.425781 C 86.480469 66.785156 86.207031 67.117188 85.902344 67.425781 C 85.59375 67.730469 85.261719 68.003906 84.902344 68.246094 C 84.542969 68.484375 84.160156 68.6875 83.761719 68.855469 C 83.359375 69.019531 82.949219 69.144531 82.523438 69.230469 C 82.097656 69.316406 81.667969 69.355469 81.234375 69.355469 C 80.800781 69.355469 80.371094 69.316406 79.949219 69.230469 C 79.523438 69.144531 79.109375 69.019531 78.710938 68.855469 C 78.308594 68.6875 77.929688 68.484375 77.570312 68.246094 C 77.207031 68.003906 76.875 67.730469 76.570312 67.425781 C 76.261719 67.117188 75.988281 66.785156 75.75 66.425781 C 75.507812 66.0625 75.304688 65.683594 75.136719 65.285156 C 74.972656 64.882812 74.847656 64.46875 74.761719 64.046875 C 74.679688 63.621094 74.636719 63.191406 74.636719 62.757812 C 74.636719 62.324219 74.679688 61.894531 74.761719 61.46875 C 74.847656 61.046875 74.972656 60.632812 75.136719 60.234375 C 75.304688 59.832031 75.507812 59.453125 75.75 59.089844 C 75.988281 58.730469 76.261719 58.398438 76.570312 58.089844 C 76.875 57.785156 77.207031 57.511719 77.570312 57.269531 C 77.929688 57.03125 78.308594 56.828125 78.710938 56.660156 C 79.109375 56.496094 79.523438 56.371094 79.949219 56.285156 C 80.371094 56.199219 80.800781 56.160156 81.234375 56.160156 C 81.667969 56.160156 82.097656 56.199219 82.523438 56.285156 C 82.949219 56.371094 83.359375 56.496094 83.761719 56.660156 C 84.160156 56.828125 84.542969 57.03125 84.902344 57.269531 C 85.261719 57.511719 85.59375 57.785156 85.902344 58.089844 C 86.207031 58.398438 86.480469 58.730469 86.722656 59.089844 C 86.964844 59.453125 87.167969 59.832031 87.332031 60.234375 C 87.496094 60.632812 87.625 61.046875 87.707031 61.46875 C 87.792969 61.894531 87.835938 62.324219 87.835938 62.757812 Z M 95.679688 40.320312 C 94.113281 40.3125 92.554688 40.390625 90.996094 40.5625 C 89.441406 40.730469 87.902344 40.992188 86.375 41.335938 C 84.847656 41.683594 83.347656 42.117188 81.871094 42.636719 C 80.394531 43.15625 78.953125 43.757812 77.542969 44.445312 C 76.136719 45.128906 74.773438 45.890625 73.453125 46.734375 C 72.132812 47.574219 70.867188 48.492188 69.652344 49.476562 C 68.4375 50.464844 67.28125 51.519531 66.1875 52.636719 C 65.09375 53.757812 64.070312 54.9375 63.113281 56.175781 C 58.867188 56.320312 54.847656 57.34375 51.050781 59.246094 C 48.875 60.246094 46.921875 61.578125 45.195312 63.234375 C 43.464844 64.894531 42.054688 66.789062 40.960938 68.921875 C 40.707031 69.515625 40.527344 70.132812 40.425781 70.773438 C 40.320312 71.414062 40.300781 72.054688 40.355469 72.699219 C 40.414062 73.34375 40.550781 73.972656 40.765625 74.585938 C 40.980469 75.195312 41.265625 75.773438 41.621094 76.3125 C 41.984375 76.867188 42.40625 77.367188 42.890625 77.8125 C 43.378906 78.261719 43.910156 78.644531 44.492188 78.957031 C 45.074219 79.273438 45.683594 79.511719 46.324219 79.671875 C 46.964844 79.835938 47.617188 79.914062 48.277344 79.914062 L 54.839844 79.914062 C 55.445312 79.917969 56.042969 79.980469 56.636719 80.101562 C 57.230469 80.222656 57.808594 80.398438 58.367188 80.628906 C 58.925781 80.863281 59.457031 81.148438 59.960938 81.484375 C 60.464844 81.824219 60.929688 82.207031 61.359375 82.632812 C 61.785156 83.0625 62.167969 83.527344 62.507812 84.03125 C 62.84375 84.535156 63.128906 85.066406 63.363281 85.625 C 63.59375 86.183594 63.773438 86.761719 63.894531 87.355469 C 64.011719 87.949219 64.074219 88.546875 64.078125 89.15625 L 64.078125 95.714844 C 64.078125 96.375 64.15625 97.027344 64.320312 97.667969 C 64.480469 98.308594 64.71875 98.917969 65.035156 99.5 C 65.347656 100.082031 65.726562 100.613281 66.175781 101.101562 C 66.621094 101.585938 67.121094 102.007812 67.675781 102.371094 C 68.214844 102.730469 68.792969 103.015625 69.402344 103.230469 C 70.015625 103.441406 70.640625 103.578125 71.289062 103.636719 C 71.933594 103.695312 72.574219 103.671875 73.214844 103.570312 C 73.855469 103.464844 74.472656 103.289062 75.066406 103.03125 C 77.199219 101.9375 79.09375 100.527344 80.753906 98.800781 C 82.410156 97.070312 83.742188 95.117188 84.742188 92.941406 C 86.644531 89.144531 87.667969 85.125 87.8125 80.882812 C 89.054688 79.921875 90.234375 78.890625 91.355469 77.796875 C 92.476562 76.699219 93.53125 75.542969 94.519531 74.324219 C 95.507812 73.109375 96.421875 71.835938 97.265625 70.515625 C 98.109375 69.191406 98.871094 67.824219 99.558594 66.414062 C 100.242188 65.003906 100.84375 63.558594 101.363281 62.078125 C 101.882812 60.597656 102.316406 59.09375 102.664062 57.5625 C 103.007812 56.035156 103.265625 54.492188 103.4375 52.929688 C 103.605469 51.371094 103.683594 49.808594 103.671875 48.238281 C 103.671875 47.71875 103.617188 47.199219 103.515625 46.6875 C 103.410156 46.175781 103.257812 45.679688 103.054688 45.195312 C 102.855469 44.714844 102.605469 44.257812 102.316406 43.824219 C 102.023438 43.390625 101.691406 42.988281 101.320312 42.621094 C 100.949219 42.253906 100.546875 41.925781 100.109375 41.636719 C 99.671875 41.347656 99.214844 41.105469 98.730469 40.910156 C 98.246094 40.710938 97.746094 40.5625 97.234375 40.464844 C 96.71875 40.367188 96.203125 40.316406 95.679688 40.320312 Z M 51.792969 74.636719 L 48.277344 74.636719 C 47.824219 74.640625 47.398438 74.535156 46.996094 74.316406 C 46.597656 74.101562 46.277344 73.800781 46.03125 73.417969 C 45.792969 73.066406 45.652344 72.671875 45.613281 72.246094 C 45.574219 71.820312 45.636719 71.410156 45.808594 71.015625 C 46.660156 69.457031 47.734375 68.074219 49.039062 66.867188 C 50.339844 65.664062 51.800781 64.695312 53.417969 63.964844 C 55.097656 63.121094 56.851562 62.488281 58.679688 62.0625 C 56.050781 66.074219 53.757812 70.261719 51.792969 74.636719 Z M 80.035156 90.574219 C 79.308594 92.191406 78.339844 93.652344 77.132812 94.953125 C 75.925781 96.257812 74.542969 97.332031 72.988281 98.183594 C 72.59375 98.355469 72.183594 98.421875 71.753906 98.378906 C 71.328125 98.339844 70.9375 98.199219 70.582031 97.960938 C 70.199219 97.714844 69.898438 97.394531 69.683594 96.996094 C 69.46875 96.597656 69.363281 96.171875 69.363281 95.714844 L 69.363281 92.199219 C 73.738281 90.238281 77.929688 87.941406 81.9375 85.3125 C 81.507812 87.144531 80.875 88.894531 80.027344 90.574219 Z M 80.394531 79.964844 C 76.816406 82.449219 73.058594 84.621094 69.121094 86.484375 C 68.984375 85.769531 68.800781 85.066406 68.558594 84.378906 C 68.320312 83.691406 68.03125 83.023438 67.691406 82.378906 C 67.351562 81.734375 66.964844 81.117188 66.535156 80.53125 C 66.101562 79.945312 65.628906 79.394531 65.113281 78.878906 C 64.597656 78.363281 64.046875 77.890625 63.460938 77.457031 C 62.871094 77.023438 62.257812 76.636719 61.613281 76.296875 C 60.96875 75.957031 60.300781 75.667969 59.613281 75.429688 C 58.925781 75.191406 58.222656 75.003906 57.503906 74.871094 C 59.371094 70.9375 61.542969 67.183594 64.03125 63.609375 C 72.921875 51.207031 82.132812 45.988281 95.753906 45.601562 C 96.097656 45.601562 96.429688 45.664062 96.746094 45.792969 C 97.066406 45.921875 97.347656 46.105469 97.59375 46.347656 C 97.839844 46.585938 98.03125 46.863281 98.171875 47.179688 C 98.308594 47.492188 98.382812 47.824219 98.394531 48.164062 C 98.003906 61.859375 92.785156 71.074219 80.386719 79.964844 Z M 80.394531 79.964844 " fill-opacity="1" fill-rule="nonzero"/></g></svg>