<svg xmlns="http://www.w3.org/2000/svg" xmlns:xlink="http://www.w3.org/1999/xlink" width="192" zoomAndPan="magnify" viewBox="0 0 144 143.999998" height="192" preserveAspectRatio="xMidYMid meet" version="1.0"><defs><clipPath id="59777234b2"><path d="M 38.046875 38.046875 L 106 38.046875 L 106 106 L 38.046875 106 Z M 38.046875 38.046875 " clip-rule="nonzero"/></clipPath><clipPath id="68e968ad2d"><path d="M 52 38.046875 L 106 38.046875 L 106 64 L 52 64 Z M 52 38.046875 " clip-rule="nonzero"/></clipPath></defs><g clip-path="url(#59777234b2)"><path fill="#013220" d="M 103.117188 100.289062 L 52.195312 100.289062 C 51.636719 100.289062 51.085938 100.234375 50.539062 100.125 C 49.992188 100.015625 49.460938 99.855469 48.945312 99.640625 C 48.429688 99.429688 47.941406 99.167969 47.480469 98.859375 C 47.015625 98.546875 46.585938 98.195312 46.191406 97.800781 C 45.796875 97.410156 45.445312 96.980469 45.136719 96.515625 C 44.828125 96.054688 44.566406 95.5625 44.351562 95.050781 C 44.140625 94.535156 43.976562 94.003906 43.871094 93.457031 C 43.761719 92.910156 43.707031 92.359375 43.707031 91.800781 L 43.707031 40.878906 C 43.707031 40.503906 43.632812 40.140625 43.492188 39.792969 C 43.347656 39.449219 43.144531 39.140625 42.878906 38.875 C 42.613281 38.613281 42.308594 38.40625 41.960938 38.261719 C 41.613281 38.121094 41.253906 38.046875 40.878906 38.046875 C 40.503906 38.046875 40.140625 38.121094 39.792969 38.261719 C 39.449219 38.40625 39.140625 38.613281 38.875 38.875 C 38.613281 39.140625 38.40625 39.449219 38.261719 39.792969 C 38.121094 40.140625 38.046875 40.503906 38.046875 40.878906 L 38.046875 91.800781 C 38.050781 92.730469 38.140625 93.648438 38.324219 94.558594 C 38.503906 95.46875 38.773438 96.355469 39.128906 97.210938 C 39.484375 98.070312 39.921875 98.882812 40.4375 99.65625 C 40.953125 100.429688 41.539062 101.140625 42.195312 101.796875 C 42.851562 102.457031 43.566406 103.042969 44.339844 103.558594 C 45.109375 104.074219 45.925781 104.507812 46.78125 104.867188 C 47.640625 105.222656 48.523438 105.488281 49.433594 105.671875 C 50.347656 105.855469 51.265625 105.945312 52.195312 105.945312 L 103.117188 105.945312 C 103.492188 105.945312 103.855469 105.875 104.199219 105.730469 C 104.546875 105.585938 104.851562 105.382812 105.117188 105.117188 C 105.382812 104.851562 105.585938 104.546875 105.730469 104.199219 C 105.875 103.855469 105.945312 103.492188 105.945312 103.117188 C 105.945312 102.742188 105.875 102.382812 105.730469 102.035156 C 105.585938 101.6875 105.382812 101.382812 105.117188 101.117188 C 104.851562 100.851562 104.546875 100.648438 104.199219 100.503906 C 103.855469 100.359375 103.492188 100.289062 103.117188 100.289062 Z M 103.117188 100.289062 " fill-opacity="1" fill-rule="nonzero"/></g><path fill="#013220" d="M 55.023438 94.628906 C 55.398438 94.628906 55.757812 94.558594 56.105469 94.414062 C 56.453125 94.269531 56.757812 94.066406 57.023438 93.800781 C 57.289062 93.535156 57.492188 93.230469 57.636719 92.882812 C 57.78125 92.539062 57.851562 92.175781 57.851562 91.800781 L 57.851562 71.996094 C 57.851562 71.621094 57.78125 71.261719 57.636719 70.914062 C 57.492188 70.566406 57.289062 70.261719 57.023438 69.996094 C 56.757812 69.730469 56.453125 69.527344 56.105469 69.382812 C 55.757812 69.238281 55.398438 69.167969 55.023438 69.167969 C 54.648438 69.167969 54.285156 69.238281 53.941406 69.382812 C 53.59375 69.527344 53.289062 69.730469 53.023438 69.996094 C 52.757812 70.261719 52.550781 70.566406 52.410156 70.914062 C 52.265625 71.261719 52.195312 71.621094 52.195312 71.996094 L 52.195312 91.800781 C 52.195312 92.175781 52.265625 92.539062 52.410156 92.882812 C 52.550781 93.230469 52.757812 93.535156 53.023438 93.800781 C 53.289062 94.066406 53.59375 94.269531 53.941406 94.414062 C 54.285156 94.558594 54.648438 94.628906 55.023438 94.628906 Z M 55.023438 94.628906 " fill-opacity="1" fill-rule="nonzero"/><path fill="#013220" d="M 66.339844 66.339844 L 66.339844 91.800781 C 66.339844 92.175781 66.410156 92.539062 66.554688 92.882812 C 66.699219 93.230469 66.902344 93.535156 67.167969 93.800781 C 67.433594 94.066406 67.738281 94.269531 68.085938 94.414062 C 68.433594 94.558594 68.792969 94.628906 69.167969 94.628906 C 69.542969 94.628906 69.90625 94.558594 70.25 94.414062 C 70.597656 94.269531 70.902344 94.066406 71.167969 93.800781 C 71.433594 93.535156 71.636719 93.230469 71.78125 92.882812 C 71.925781 92.539062 71.996094 92.175781 71.996094 91.800781 L 71.996094 66.339844 C 71.996094 65.964844 71.925781 65.601562 71.78125 65.257812 C 71.636719 64.910156 71.433594 64.605469 71.167969 64.339844 C 70.902344 64.074219 70.597656 63.867188 70.25 63.726562 C 69.90625 63.582031 69.542969 63.511719 69.167969 63.511719 C 68.792969 63.511719 68.433594 63.582031 68.085938 63.726562 C 67.738281 63.867188 67.433594 64.074219 67.167969 64.339844 C 66.902344 64.605469 66.699219 64.910156 66.554688 65.257812 C 66.410156 65.601562 66.339844 65.964844 66.339844 66.339844 Z M 66.339844 66.339844 " fill-opacity="1" fill-rule="nonzero"/><path fill="#013220" d="M 80.484375 74.828125 L 80.484375 91.800781 C 80.484375 92.175781 80.554688 92.539062 80.699219 92.882812 C 80.84375 93.230469 81.046875 93.535156 81.3125 93.800781 C 81.578125 94.066406 81.882812 94.269531 82.230469 94.414062 C 82.578125 94.558594 82.9375 94.628906 83.3125 94.628906 C 83.6875 94.628906 84.050781 94.558594 84.398438 94.414062 C 84.742188 94.269531 85.050781 94.066406 85.3125 93.800781 C 85.578125 93.535156 85.785156 93.230469 85.925781 92.882812 C 86.070312 92.539062 86.144531 92.175781 86.144531 91.800781 L 86.144531 74.828125 C 86.144531 74.453125 86.070312 74.089844 85.925781 73.742188 C 85.785156 73.398438 85.578125 73.089844 85.3125 72.824219 C 85.050781 72.5625 84.742188 72.355469 84.398438 72.210938 C 84.050781 72.070312 83.6875 71.996094 83.3125 71.996094 C 82.9375 71.996094 82.578125 72.070312 82.230469 72.210938 C 81.882812 72.355469 81.578125 72.5625 81.3125 72.824219 C 81.046875 73.089844 80.84375 73.398438 80.699219 73.742188 C 80.554688 74.089844 80.484375 74.453125 80.484375 74.828125 Z M 80.484375 74.828125 " fill-opacity="1" fill-rule="nonzero"/><path fill="#013220" d="M 94.628906 63.511719 L 94.628906 91.800781 C 94.628906 92.175781 94.703125 92.539062 94.84375 92.882812 C 94.988281 93.230469 95.195312 93.535156 95.457031 93.800781 C 95.722656 94.066406 96.03125 94.269531 96.375 94.414062 C 96.722656 94.558594 97.085938 94.628906 97.460938 94.628906 C 97.835938 94.628906 98.195312 94.558594 98.542969 94.414062 C 98.890625 94.269531 99.195312 94.066406 99.460938 93.800781 C 99.726562 93.535156 99.929688 93.230469 100.074219 92.882812 C 100.214844 92.539062 100.289062 92.175781 100.289062 91.800781 L 100.289062 63.511719 C 100.289062 63.136719 100.214844 62.773438 100.074219 62.425781 C 99.929688 62.082031 99.726562 61.773438 99.460938 61.507812 C 99.195312 61.246094 98.890625 61.039062 98.542969 60.894531 C 98.195312 60.753906 97.835938 60.679688 97.460938 60.679688 C 97.085938 60.679688 96.722656 60.753906 96.375 60.894531 C 96.03125 61.039062 95.722656 61.246094 95.457031 61.507812 C 95.195312 61.773438 94.988281 62.082031 94.84375 62.425781 C 94.703125 62.773438 94.628906 63.136719 94.628906 63.511719 Z M 94.628906 63.511719 " fill-opacity="1" fill-rule="nonzero"/><g clip-path="url(#68e968ad2d)"><path fill="#013220" d="M 55.023438 63.511719 C 55.804688 63.511719 56.472656 63.234375 57.023438 62.679688 L 67.167969 52.535156 C 67.4375 52.277344 67.746094 52.082031 68.089844 51.945312 C 68.4375 51.804688 68.796875 51.734375 69.167969 51.734375 C 69.539062 51.734375 69.898438 51.804688 70.246094 51.945312 C 70.589844 52.082031 70.898438 52.277344 71.167969 52.535156 L 77.3125 58.679688 C 77.707031 59.074219 78.136719 59.425781 78.597656 59.734375 C 79.0625 60.046875 79.550781 60.308594 80.066406 60.519531 C 80.582031 60.734375 81.113281 60.894531 81.660156 61.003906 C 82.203125 61.113281 82.757812 61.164062 83.3125 61.164062 C 83.871094 61.164062 84.421875 61.113281 84.96875 61.003906 C 85.515625 60.894531 86.046875 60.734375 86.5625 60.519531 C 87.074219 60.308594 87.566406 60.046875 88.027344 59.734375 C 88.492188 59.425781 88.921875 59.074219 89.3125 58.679688 L 105.117188 42.878906 C 105.375 42.609375 105.574219 42.304688 105.710938 41.960938 C 105.847656 41.617188 105.914062 41.257812 105.910156 40.886719 C 105.910156 40.515625 105.835938 40.160156 105.691406 39.816406 C 105.546875 39.476562 105.34375 39.175781 105.082031 38.910156 C 104.820312 38.648438 104.519531 38.445312 104.175781 38.304688 C 103.835938 38.160156 103.476562 38.085938 103.109375 38.082031 C 102.738281 38.078125 102.378906 38.148438 102.035156 38.285156 C 101.691406 38.421875 101.382812 38.621094 101.117188 38.878906 L 85.3125 54.679688 C 85.050781 54.941406 84.742188 55.148438 84.394531 55.289062 C 84.050781 55.433594 83.6875 55.507812 83.3125 55.507812 C 82.9375 55.507812 82.578125 55.433594 82.230469 55.289062 C 81.886719 55.148438 81.578125 54.941406 81.3125 54.679688 L 75.167969 48.535156 C 74.773438 48.140625 74.347656 47.789062 73.882812 47.480469 C 73.417969 47.171875 72.929688 46.910156 72.414062 46.695312 C 71.902344 46.484375 71.371094 46.324219 70.824219 46.214844 C 70.277344 46.105469 69.726562 46.050781 69.167969 46.050781 C 68.609375 46.050781 68.058594 46.105469 67.511719 46.214844 C 66.964844 46.324219 66.4375 46.484375 65.921875 46.695312 C 65.40625 46.910156 64.917969 47.171875 64.453125 47.480469 C 63.992188 47.789062 63.5625 48.140625 63.167969 48.535156 L 53.023438 58.679688 C 52.617188 59.085938 52.359375 59.566406 52.25 60.128906 C 52.136719 60.691406 52.191406 61.234375 52.410156 61.765625 C 52.628906 62.292969 52.976562 62.714844 53.453125 63.035156 C 53.925781 63.351562 54.449219 63.511719 55.023438 63.511719 Z M 55.023438 63.511719 " fill-opacity="1" fill-rule="nonzero"/></g></svg>