<svg xmlns="http://www.w3.org/2000/svg" xmlns:xlink="http://www.w3.org/1999/xlink" width="192" zoomAndPan="magnify" viewBox="0 0 144 143.999998" height="192" preserveAspectRatio="xMidYMid meet" version="1.0"><defs><clipPath id="32870f84f1"><path d="M 40.734375 40.734375 L 102.984375 40.734375 L 102.984375 102.984375 L 40.734375 102.984375 Z M 40.734375 40.734375 " clip-rule="nonzero"/></clipPath></defs><g clip-path="url(#32870f84f1)"><path fill="#ffffff" d="M 60.273438 74.601562 C 59.503906 74.601562 58.742188 74.523438 57.984375 74.375 C 57.230469 74.222656 56.496094 74 55.785156 73.707031 C 55.074219 73.414062 54.398438 73.050781 53.757812 72.625 C 53.121094 72.195312 52.527344 71.710938 51.984375 71.167969 C 51.4375 70.621094 50.953125 70.03125 50.527344 69.390625 C 50.097656 68.75 49.738281 68.074219 49.441406 67.363281 C 49.148438 66.652344 48.925781 65.917969 48.773438 65.164062 C 48.625 64.410156 48.550781 63.648438 48.550781 62.878906 C 48.550781 62.109375 48.625 61.34375 48.773438 60.589844 C 48.925781 59.835938 49.148438 59.101562 49.441406 58.390625 C 49.738281 57.679688 50.097656 57.003906 50.527344 56.363281 C 50.953125 55.726562 51.4375 55.132812 51.984375 54.589844 C 52.527344 54.042969 53.121094 53.558594 53.757812 53.128906 C 54.398438 52.703125 55.074219 52.339844 55.785156 52.046875 C 56.496094 51.753906 57.230469 51.53125 57.984375 51.378906 C 58.742188 51.230469 59.503906 51.15625 60.273438 51.15625 C 61.042969 51.15625 61.804688 51.230469 62.558594 51.378906 C 63.3125 51.53125 64.046875 51.753906 64.757812 52.046875 C 65.46875 52.339844 66.144531 52.703125 66.785156 53.128906 C 67.425781 53.558594 68.015625 54.042969 68.5625 54.589844 C 69.105469 55.132812 69.589844 55.726562 70.019531 56.363281 C 70.445312 57.003906 70.808594 57.679688 71.101562 58.390625 C 71.398438 59.101562 71.621094 59.835938 71.769531 60.589844 C 71.917969 61.34375 71.996094 62.109375 71.996094 62.878906 C 71.992188 63.648438 71.917969 64.410156 71.765625 65.164062 C 71.617188 65.917969 71.394531 66.652344 71.097656 67.359375 C 70.804688 68.070312 70.441406 68.746094 70.015625 69.386719 C 69.585938 70.027344 69.101562 70.617188 68.558594 71.164062 C 68.011719 71.707031 67.421875 72.191406 66.78125 72.621094 C 66.140625 73.046875 65.46875 73.410156 64.757812 73.703125 C 64.046875 74 63.3125 74.222656 62.558594 74.371094 C 61.804688 74.523438 61.042969 74.597656 60.273438 74.601562 Z M 60.273438 56.363281 C 59.84375 56.363281 59.421875 56.40625 59 56.488281 C 58.582031 56.574219 58.175781 56.695312 57.78125 56.859375 C 57.386719 57.023438 57.007812 57.226562 56.652344 57.460938 C 56.296875 57.699219 55.96875 57.96875 55.667969 58.273438 C 55.363281 58.574219 55.09375 58.902344 54.855469 59.257812 C 54.621094 59.613281 54.417969 59.988281 54.253906 60.386719 C 54.09375 60.78125 53.96875 61.1875 53.886719 61.605469 C 53.800781 62.027344 53.761719 62.449219 53.761719 62.878906 C 53.761719 63.304688 53.800781 63.726562 53.886719 64.148438 C 53.96875 64.566406 54.09375 64.972656 54.253906 65.371094 C 54.417969 65.765625 54.621094 66.140625 54.855469 66.496094 C 55.09375 66.851562 55.363281 67.179688 55.667969 67.480469 C 55.96875 67.785156 56.296875 68.054688 56.652344 68.292969 C 57.007812 68.53125 57.386719 68.730469 57.78125 68.894531 C 58.175781 69.058594 58.582031 69.179688 59 69.265625 C 59.421875 69.347656 59.84375 69.390625 60.273438 69.390625 C 60.699219 69.390625 61.125 69.347656 61.542969 69.265625 C 61.960938 69.179688 62.371094 69.058594 62.765625 68.894531 C 63.160156 68.730469 63.535156 68.53125 63.890625 68.292969 C 64.246094 68.054688 64.574219 67.785156 64.878906 67.480469 C 65.179688 67.179688 65.449219 66.851562 65.6875 66.496094 C 65.925781 66.140625 66.125 65.765625 66.289062 65.371094 C 66.453125 64.972656 66.578125 64.566406 66.660156 64.148438 C 66.742188 63.726562 66.785156 63.304688 66.785156 62.878906 C 66.785156 62.449219 66.742188 62.027344 66.660156 61.605469 C 66.578125 61.1875 66.453125 60.78125 66.289062 60.386719 C 66.125 59.988281 65.925781 59.613281 65.6875 59.257812 C 65.449219 58.902344 65.179688 58.574219 64.878906 58.273438 C 64.574219 57.96875 64.246094 57.699219 63.890625 57.460938 C 63.535156 57.226562 63.160156 57.023438 62.765625 56.859375 C 62.371094 56.695312 61.960938 56.574219 61.542969 56.488281 C 61.125 56.40625 60.699219 56.363281 60.273438 56.363281 Z M 79.808594 100.648438 L 79.808594 99.347656 C 79.808594 98.707031 79.777344 98.070312 79.714844 97.433594 C 79.652344 96.796875 79.558594 96.164062 79.433594 95.535156 C 79.308594 94.90625 79.152344 94.289062 78.96875 93.675781 C 78.78125 93.0625 78.566406 92.460938 78.324219 91.871094 C 78.078125 91.277344 77.804688 90.703125 77.503906 90.136719 C 77.199219 89.574219 76.871094 89.023438 76.515625 88.492188 C 76.160156 87.960938 75.78125 87.445312 75.375 86.953125 C 74.96875 86.457031 74.539062 85.984375 74.085938 85.53125 C 73.636719 85.078125 73.160156 84.648438 72.667969 84.246094 C 72.171875 83.839844 71.660156 83.457031 71.125 83.101562 C 70.59375 82.746094 70.046875 82.417969 69.480469 82.117188 C 68.917969 81.816406 68.339844 81.542969 67.75 81.296875 C 67.15625 81.050781 66.554688 80.835938 65.945312 80.652344 C 65.332031 80.464844 64.710938 80.308594 64.082031 80.183594 C 63.457031 80.058594 62.824219 79.964844 62.1875 79.902344 C 61.550781 79.839844 60.914062 79.808594 60.273438 79.808594 C 59.632812 79.808594 58.992188 79.839844 58.355469 79.902344 C 57.71875 79.964844 57.089844 80.058594 56.460938 80.183594 C 55.832031 80.308594 55.214844 80.464844 54.601562 80.652344 C 53.988281 80.835938 53.386719 81.050781 52.796875 81.296875 C 52.203125 81.542969 51.625 81.816406 51.0625 82.117188 C 50.5 82.417969 49.949219 82.746094 49.417969 83.101562 C 48.886719 83.457031 48.371094 83.839844 47.878906 84.246094 C 47.382812 84.648438 46.910156 85.078125 46.457031 85.53125 C 46.003906 85.984375 45.574219 86.457031 45.167969 86.953125 C 44.765625 87.445312 44.382812 87.960938 44.027344 88.492188 C 43.671875 89.023438 43.34375 89.574219 43.042969 90.136719 C 42.742188 90.703125 42.46875 91.277344 42.222656 91.871094 C 41.976562 92.460938 41.761719 93.0625 41.578125 93.675781 C 41.390625 94.289062 41.234375 94.90625 41.109375 95.535156 C 40.984375 96.164062 40.890625 96.796875 40.828125 97.433594 C 40.765625 98.070312 40.734375 98.707031 40.734375 99.347656 L 40.734375 100.648438 C 40.734375 100.996094 40.800781 101.328125 40.933594 101.644531 C 41.066406 101.964844 41.253906 102.246094 41.496094 102.492188 C 41.742188 102.734375 42.023438 102.925781 42.34375 103.054688 C 42.664062 103.1875 42.996094 103.253906 43.339844 103.253906 C 43.683594 103.253906 44.019531 103.1875 44.335938 103.054688 C 44.65625 102.925781 44.9375 102.734375 45.183594 102.492188 C 45.425781 102.246094 45.613281 101.964844 45.746094 101.644531 C 45.878906 101.328125 45.945312 100.996094 45.945312 100.648438 L 45.945312 99.347656 C 45.945312 98.40625 46.035156 97.472656 46.21875 96.550781 C 46.402344 95.628906 46.675781 94.734375 47.035156 93.863281 C 47.394531 92.996094 47.835938 92.167969 48.359375 91.386719 C 48.882812 90.605469 49.476562 89.882812 50.140625 89.214844 C 50.804688 88.550781 51.53125 87.957031 52.3125 87.433594 C 53.09375 86.910156 53.921875 86.46875 54.789062 86.109375 C 55.660156 85.75 56.554688 85.476562 57.476562 85.292969 C 58.398438 85.113281 59.332031 85.019531 60.273438 85.019531 C 61.214844 85.019531 62.144531 85.113281 63.066406 85.292969 C 63.988281 85.476562 64.886719 85.75 65.753906 86.109375 C 66.625 86.46875 67.449219 86.910156 68.230469 87.433594 C 69.015625 87.957031 69.738281 88.550781 70.402344 89.214844 C 71.070312 89.882812 71.664062 90.605469 72.183594 91.386719 C 72.707031 92.167969 73.148438 92.996094 73.507812 93.863281 C 73.867188 94.734375 74.140625 95.628906 74.324219 96.550781 C 74.507812 97.472656 74.601562 98.40625 74.601562 99.347656 L 74.601562 100.648438 C 74.601562 100.996094 74.664062 101.328125 74.796875 101.644531 C 74.929688 101.964844 75.117188 102.246094 75.363281 102.492188 C 75.605469 102.734375 75.886719 102.925781 76.207031 103.054688 C 76.527344 103.1875 76.859375 103.253906 77.203125 103.253906 C 77.550781 103.253906 77.882812 103.1875 78.203125 103.054688 C 78.519531 102.925781 78.800781 102.734375 79.046875 102.492188 C 79.289062 102.246094 79.480469 101.964844 79.613281 101.644531 C 79.742188 101.328125 79.808594 100.996094 79.808594 100.648438 Z M 103.253906 87.625 C 103.253906 86.75 103.191406 85.878906 103.066406 85.011719 C 102.941406 84.144531 102.753906 83.292969 102.503906 82.453125 C 102.257812 81.613281 101.949219 80.796875 101.582031 80 C 101.21875 79.207031 100.796875 78.441406 100.320312 77.707031 C 99.84375 76.972656 99.316406 76.273438 98.742188 75.617188 C 98.164062 74.957031 97.542969 74.34375 96.878906 73.773438 C 96.214844 73.203125 95.511719 72.683594 94.773438 72.21875 C 94.03125 71.75 93.261719 71.335938 92.464844 70.980469 C 91.664062 70.621094 90.84375 70.324219 90 70.082031 C 89.160156 69.84375 88.304688 69.667969 87.4375 69.550781 C 86.570312 69.433594 85.695312 69.382812 84.820312 69.390625 C 83.945312 69.402344 83.074219 69.472656 82.210938 69.609375 C 81.347656 69.742188 80.496094 69.9375 79.65625 70.195312 C 78.820312 70.453125 78.007812 70.769531 77.214844 71.144531 C 76.425781 71.519531 75.664062 71.949219 74.933594 72.433594 C 74.207031 72.917969 73.515625 73.449219 72.863281 74.035156 C 72.601562 74.265625 72.394531 74.535156 72.242188 74.847656 C 72.089844 75.160156 72.003906 75.488281 71.980469 75.835938 C 71.960938 76.183594 72.007812 76.519531 72.121094 76.847656 C 72.234375 77.175781 72.410156 77.46875 72.640625 77.730469 C 72.871094 77.988281 73.144531 78.191406 73.460938 78.34375 C 73.773438 78.492188 74.101562 78.574219 74.449219 78.59375 C 74.796875 78.609375 75.132812 78.558594 75.460938 78.441406 C 75.789062 78.324219 76.082031 78.148438 76.335938 77.914062 C 77.273438 77.078125 78.3125 76.390625 79.445312 75.851562 C 80.582031 75.3125 81.773438 74.949219 83.015625 74.753906 C 84.257812 74.5625 85.5 74.546875 86.746094 74.714844 C 87.992188 74.882812 89.191406 75.222656 90.335938 75.734375 C 91.484375 76.25 92.535156 76.914062 93.492188 77.730469 C 94.445312 78.550781 95.265625 79.484375 95.949219 80.539062 C 96.632812 81.59375 97.152344 82.726562 97.507812 83.929688 C 97.867188 85.136719 98.042969 86.367188 98.042969 87.625 C 98.042969 87.96875 98.109375 88.300781 98.242188 88.621094 C 98.375 88.941406 98.5625 89.222656 98.808594 89.464844 C 99.050781 89.710938 99.332031 89.898438 99.652344 90.03125 C 99.972656 90.164062 100.304688 90.230469 100.648438 90.230469 C 100.996094 90.230469 101.328125 90.164062 101.644531 90.03125 C 101.964844 89.898438 102.246094 89.710938 102.492188 89.464844 C 102.734375 89.222656 102.925781 88.941406 103.054688 88.621094 C 103.1875 88.300781 103.253906 87.96875 103.253906 87.625 Z M 86.320312 64.179688 C 85.550781 64.179688 84.789062 64.105469 84.035156 63.953125 C 83.28125 63.804688 82.546875 63.582031 81.835938 63.289062 C 81.125 62.992188 80.449219 62.632812 79.808594 62.203125 C 79.167969 61.777344 78.578125 61.289062 78.03125 60.746094 C 77.488281 60.203125 77.003906 59.609375 76.574219 58.96875 C 76.148438 58.328125 75.785156 57.65625 75.492188 56.941406 C 75.199219 56.230469 74.976562 55.5 74.824219 54.746094 C 74.675781 53.988281 74.601562 53.226562 74.601562 52.457031 C 74.601562 51.6875 74.675781 50.925781 74.824219 50.171875 C 74.976562 49.414062 75.199219 48.683594 75.492188 47.972656 C 75.785156 47.261719 76.148438 46.585938 76.574219 45.945312 C 77.003906 45.304688 77.488281 44.710938 78.03125 44.167969 C 78.578125 43.625 79.167969 43.136719 79.808594 42.710938 C 80.449219 42.28125 81.125 41.921875 81.835938 41.628906 C 82.546875 41.332031 83.28125 41.109375 84.035156 40.960938 C 84.789062 40.808594 85.550781 40.734375 86.320312 40.734375 C 87.09375 40.734375 87.855469 40.808594 88.609375 40.960938 C 89.363281 41.109375 90.097656 41.332031 90.808594 41.628906 C 91.519531 41.921875 92.195312 42.28125 92.835938 42.710938 C 93.476562 43.136719 94.066406 43.625 94.609375 44.167969 C 95.15625 44.710938 95.640625 45.304688 96.070312 45.945312 C 96.496094 46.585938 96.859375 47.261719 97.152344 47.972656 C 97.445312 48.683594 97.667969 49.414062 97.820312 50.171875 C 97.96875 50.925781 98.042969 51.6875 98.042969 52.457031 C 98.042969 53.226562 97.96875 53.988281 97.816406 54.742188 C 97.667969 55.496094 97.445312 56.230469 97.148438 56.941406 C 96.855469 57.652344 96.492188 58.328125 96.066406 58.96875 C 95.636719 59.605469 95.152344 60.199219 94.605469 60.742188 C 94.0625 61.285156 93.472656 61.773438 92.832031 62.199219 C 92.191406 62.628906 91.515625 62.988281 90.804688 63.285156 C 90.09375 63.578125 89.363281 63.800781 88.609375 63.953125 C 87.855469 64.101562 87.089844 64.179688 86.320312 64.179688 Z M 86.320312 45.945312 C 85.894531 45.945312 85.472656 45.988281 85.050781 46.070312 C 84.632812 46.152344 84.226562 46.277344 83.828125 46.441406 C 83.433594 46.605469 83.058594 46.804688 82.703125 47.042969 C 82.347656 47.28125 82.019531 47.550781 81.71875 47.851562 C 81.414062 48.15625 81.144531 48.484375 80.90625 48.839844 C 80.667969 49.195312 80.46875 49.570312 80.304688 49.964844 C 80.140625 50.359375 80.019531 50.765625 79.933594 51.1875 C 79.851562 51.605469 79.808594 52.03125 79.808594 52.457031 C 79.808594 52.886719 79.851562 53.308594 79.933594 53.726562 C 80.019531 54.148438 80.140625 54.554688 80.304688 54.949219 C 80.46875 55.34375 80.667969 55.71875 80.90625 56.074219 C 81.144531 56.429688 81.414062 56.761719 81.71875 57.0625 C 82.019531 57.363281 82.347656 57.632812 82.703125 57.871094 C 83.058594 58.109375 83.433594 58.308594 83.828125 58.472656 C 84.226562 58.636719 84.632812 58.761719 85.050781 58.84375 C 85.472656 58.929688 85.894531 58.96875 86.320312 58.96875 C 86.75 58.96875 87.171875 58.929688 87.59375 58.84375 C 88.011719 58.761719 88.417969 58.636719 88.8125 58.472656 C 89.210938 58.308594 89.585938 58.109375 89.941406 57.871094 C 90.296875 57.632812 90.625 57.363281 90.925781 57.0625 C 91.230469 56.761719 91.5 56.429688 91.738281 56.074219 C 91.972656 55.71875 92.175781 55.34375 92.339844 54.949219 C 92.503906 54.554688 92.625 54.148438 92.710938 53.726562 C 92.792969 53.308594 92.835938 52.886719 92.835938 52.457031 C 92.835938 52.03125 92.792969 51.605469 92.710938 51.1875 C 92.625 50.765625 92.503906 50.359375 92.339844 49.964844 C 92.175781 49.570312 91.972656 49.195312 91.738281 48.839844 C 91.5 48.484375 91.230469 48.15625 90.925781 47.851562 C 90.625 47.550781 90.296875 47.28125 89.941406 47.042969 C 89.585938 46.804688 89.210938 46.605469 88.8125 46.441406 C 88.417969 46.277344 88.011719 46.152344 87.59375 46.070312 C 87.171875 45.988281 86.75 45.945312 86.320312 45.945312 Z M 86.320312 45.945312 " fill-opacity="1" fill-rule="nonzero"/></g></svg>