<svg xmlns="http://www.w3.org/2000/svg" xmlns:xlink="http://www.w3.org/1999/xlink" width="192" zoomAndPan="magnify" viewBox="0 0 144 143.999998" height="192" preserveAspectRatio="xMidYMid meet" version="1.0"><defs><clipPath id="46905a32c0"><path d="M 46.746094 46.746094 L 96.996094 46.746094 L 96.996094 96.996094 L 46.746094 96.996094 Z M 46.746094 46.746094 " clip-rule="nonzero"/></clipPath></defs><g clip-path="url(#46905a32c0)"><path fill="#013220" d="M 96.066406 78.25 C 94.9375 77.1875 93.332031 76.960938 91.972656 77.667969 C 90.675781 78.34375 89.449219 78.835938 88.292969 79.242188 C 90.996094 73.902344 92.496094 68.636719 93.03125 62.820312 C 93.15625 61.421875 92.355469 60.128906 91.03125 59.605469 C 89.675781 59.070312 88.167969 59.476562 87.28125 60.613281 C 84.597656 64.054688 82.101562 66.53125 79.859375 68.488281 C 78.695312 61.179688 77.125 53.808594 75.625 49.355469 C 75.089844 47.769531 73.667969 46.746094 72 46.746094 C 70.332031 46.746094 68.910156 47.773438 68.375 49.355469 C 66.914062 53.707031 65.277344 61.214844 64.050781 69.09375 C 61.738281 66.886719 59.371094 64.273438 56.707031 60.671875 C 56.707031 60.667969 56.703125 60.664062 56.703125 60.660156 C 55.839844 59.507812 54.363281 59.074219 53.015625 59.582031 C 51.664062 60.09375 50.84375 61.40625 50.96875 62.847656 C 51.460938 68.503906 52.976562 73.992188 55.285156 79.070312 C 54.113281 78.644531 53 78.175781 52.03125 77.667969 C 50.671875 76.960938 49.066406 77.1875 47.933594 78.25 C 46.773438 79.347656 46.425781 81.058594 47.074219 82.511719 C 47.914062 84.394531 49.011719 86.214844 50.339844 87.910156 C 55.175781 94.210938 63.296875 97.25 72.785156 97.25 C 81.820312 97.25 89.09375 93.894531 93.660156 87.910156 C 94.988281 86.210938 96.085938 84.394531 96.925781 82.511719 C 97.574219 81.058594 97.230469 79.34375 96.066406 78.25 Z M 88.382812 65.898438 C 87.386719 71.609375 85.199219 76.886719 81.515625 82.523438 C 81.347656 79.832031 81.015625 76.683594 80.574219 73.371094 C 82.886719 71.507812 85.507812 69.207031 88.382812 65.898438 Z M 72 51.839844 C 74.078125 58.652344 76.28125 71.136719 77.097656 80.042969 C 75.285156 78.488281 70.714844 74.789062 70.714844 74.789062 C 69.722656 73.992188 68.761719 73.214844 67.808594 72.421875 C 68.933594 64.480469 70.535156 56.640625 72 51.839844 Z M 68.078125 78.070312 C 68.078125 78.070312 73.539062 82.492188 75.921875 84.597656 C 76.832031 85.375 77.496094 86.726562 77.496094 87.886719 C 77.496094 90.902344 75.722656 93.019531 72.621094 93.019531 C 71.523438 93.019531 70.496094 92.601562 69.710938 91.878906 C 69.195312 91.425781 68.699219 90.957031 68.207031 90.480469 C 61.667969 84.074219 57.214844 75.441406 55.628906 66.152344 C 60.132812 71.679688 64.007812 74.796875 68.078125 78.070312 Z M 53.65625 85.320312 C 52.851562 84.292969 52.152344 83.21875 51.5625 82.113281 C 53.515625 82.988281 55.761719 83.730469 57.980469 84.257812 C 59.667969 87.035156 61.617188 89.632812 63.8125 91.988281 C 59.589844 90.785156 56.1875 88.5625 53.65625 85.320312 Z M 90.34375 85.320312 C 87.984375 88.339844 84.855469 90.457031 81.027344 91.707031 C 81.285156 91.0625 81.480469 90.390625 81.589844 89.691406 C 82.96875 87.894531 84.171875 86.152344 85.28125 84.429688 C 87.113281 84.074219 89.625 83.40625 92.429688 82.125 C 91.839844 83.226562 91.140625 84.296875 90.339844 85.320312 Z M 90.34375 85.320312 " fill-opacity="1" fill-rule="nonzero"/></g></svg>