<svg xmlns="http://www.w3.org/2000/svg" xmlns:xlink="http://www.w3.org/1999/xlink" width="192" zoomAndPan="magnify" viewBox="0 0 144 143.999998" height="192" preserveAspectRatio="xMidYMid meet" version="1.0"><defs><clipPath id="25f5f4ec66"><path d="M 50 43.199219 L 94 43.199219 L 94 100.949219 L 50 100.949219 Z M 50 43.199219 " clip-rule="nonzero"/></clipPath></defs><g clip-path="url(#25f5f4ec66)"><path fill="#ffffff" d="M 81.597656 72 L 76.796875 72 C 75.472656 72 74.398438 70.921875 74.398438 69.597656 C 74.398438 68.273438 75.472656 67.199219 76.796875 67.199219 L 81.597656 67.199219 C 82.921875 67.199219 84 68.273438 84 69.597656 C 84 70.921875 82.921875 72 81.597656 72 Z M 84 81.597656 C 84 80.273438 82.921875 79.199219 81.597656 79.199219 L 72 79.199219 C 70.675781 79.199219 69.597656 80.273438 69.597656 81.597656 C 69.597656 82.921875 70.675781 84 72 84 L 81.597656 84 C 82.921875 84 84 82.921875 84 81.597656 Z M 93.597656 88.796875 L 93.597656 60 C 93.597656 53.382812 88.214844 48 81.597656 48 L 81.1875 48 C 80.195312 45.207031 77.527344 43.199219 74.398438 43.199219 L 69.597656 43.199219 C 66.46875 43.199219 63.800781 45.207031 62.808594 48 L 62.398438 48 C 55.78125 48 50.398438 53.382812 50.398438 60 L 50.398438 88.796875 C 50.398438 95.414062 55.78125 100.796875 62.398438 100.796875 L 81.597656 100.796875 C 88.214844 100.796875 93.597656 95.414062 93.597656 88.796875 Z M 64.800781 52.800781 C 66.125 52.800781 67.199219 51.722656 67.199219 50.398438 C 67.199219 49.074219 68.277344 48 69.597656 48 L 74.398438 48 C 75.722656 48 76.796875 49.078125 76.796875 50.398438 C 76.796875 51.722656 77.875 52.800781 79.199219 52.800781 L 81.597656 52.800781 C 85.566406 52.800781 88.796875 56.03125 88.796875 60 L 88.796875 88.796875 C 88.796875 92.769531 85.566406 95.996094 81.597656 95.996094 L 62.398438 95.996094 C 58.429688 95.996094 55.199219 92.769531 55.199219 88.796875 L 55.199219 60 C 55.199219 56.03125 58.429688 52.800781 62.398438 52.800781 Z M 62.398438 79.199219 C 61.074219 79.199219 60 80.273438 60 81.597656 C 60 82.921875 61.074219 84 62.398438 84 C 63.722656 84 64.800781 82.921875 64.800781 81.597656 C 64.800781 80.273438 63.722656 79.199219 62.398438 79.199219 Z M 66.800781 70.855469 L 71.269531 66.523438 C 72.222656 65.597656 72.246094 64.078125 71.320312 63.128906 C 70.398438 62.175781 68.878906 62.15625 67.929688 63.074219 L 63.992188 66.890625 L 62.046875 65.054688 C 61.085938 64.144531 59.566406 64.183594 58.652344 65.152344 C 57.742188 66.117188 57.785156 67.636719 58.75 68.546875 L 61.171875 70.828125 C 61.925781 71.582031 62.929688 72 63.996094 72 C 65.066406 72 66.070312 71.582031 66.796875 70.855469 Z M 66.800781 70.855469 " fill-opacity="1" fill-rule="nonzero"/></g></svg>