<svg xmlns="http://www.w3.org/2000/svg" xmlns:xlink="http://www.w3.org/1999/xlink" width="192" zoomAndPan="magnify" viewBox="0 0 144 143.999998" height="192" preserveAspectRatio="xMidYMid meet" version="1.0"><defs><clipPath id="58efcecdbf"><path d="M 43.199219 43.199219 L 100.949219 43.199219 L 100.949219 100.949219 L 43.199219 100.949219 Z M 43.199219 43.199219 " clip-rule="nonzero"/></clipPath></defs><g clip-path="url(#58efcecdbf)"><path fill="#013220" d="M 91.199219 60 L 87.027344 60 C 87.707031 59.402344 88.3125 58.738281 88.84375 58.003906 C 89.375 57.273438 89.820312 56.492188 90.183594 55.664062 C 90.542969 54.835938 90.808594 53.976562 90.980469 53.085938 C 91.152344 52.199219 91.222656 51.304688 91.199219 50.398438 C 91.199219 50.082031 91.136719 49.773438 91.015625 49.480469 C 90.894531 49.1875 90.71875 48.929688 90.496094 48.703125 C 90.269531 48.476562 90.011719 48.304688 89.714844 48.183594 C 89.421875 48.0625 89.117188 48 88.796875 48 C 88.480469 48 88.171875 48.0625 87.878906 48.183594 C 87.585938 48.304688 87.328125 48.476562 87.101562 48.703125 C 86.875 48.929688 86.703125 49.1875 86.582031 49.480469 C 86.460938 49.773438 86.398438 50.082031 86.398438 50.398438 C 86.398438 56.691406 80.707031 58.871094 76.382812 59.617188 C 77.996094 56.753906 78.9375 53.679688 79.199219 50.398438 C 79.199219 49.925781 79.152344 49.457031 79.058594 48.996094 C 78.96875 48.53125 78.832031 48.082031 78.652344 47.644531 C 78.46875 47.207031 78.246094 46.792969 77.984375 46.398438 C 77.722656 46.007812 77.425781 45.644531 77.089844 45.308594 C 76.753906 44.972656 76.390625 44.675781 76 44.414062 C 75.605469 44.152344 75.191406 43.929688 74.753906 43.746094 C 74.316406 43.566406 73.867188 43.429688 73.402344 43.339844 C 72.941406 43.246094 72.472656 43.199219 72 43.199219 C 71.527344 43.199219 71.058594 43.246094 70.59375 43.339844 C 70.128906 43.429688 69.679688 43.566406 69.242188 43.746094 C 68.808594 43.929688 68.390625 44.152344 68 44.414062 C 67.605469 44.675781 67.242188 44.972656 66.90625 45.308594 C 66.574219 45.644531 66.273438 46.007812 66.011719 46.398438 C 65.75 46.792969 65.527344 47.207031 65.347656 47.644531 C 65.167969 48.082031 65.03125 48.53125 64.9375 48.996094 C 64.84375 49.457031 64.800781 49.925781 64.800781 50.398438 C 65.0625 53.679688 66 56.753906 67.617188 59.617188 C 63.289062 58.871094 57.597656 56.691406 57.597656 50.398438 C 57.597656 50.082031 57.539062 49.773438 57.417969 49.480469 C 57.296875 49.1875 57.121094 48.929688 56.898438 48.703125 C 56.671875 48.476562 56.410156 48.304688 56.117188 48.183594 C 55.824219 48.0625 55.519531 48 55.199219 48 C 54.882812 48 54.574219 48.0625 54.28125 48.183594 C 53.988281 48.304688 53.726562 48.476562 53.503906 48.703125 C 53.277344 48.929688 53.105469 49.1875 52.980469 49.480469 C 52.859375 49.773438 52.800781 50.082031 52.800781 50.398438 C 52.773438 51.304688 52.847656 52.199219 53.019531 53.085938 C 53.191406 53.976562 53.457031 54.835938 53.816406 55.664062 C 54.175781 56.492188 54.621094 57.273438 55.15625 58.003906 C 55.6875 58.738281 56.292969 59.402344 56.96875 60 L 52.800781 60 C 52.167969 60 51.546875 60.0625 50.925781 60.183594 C 50.308594 60.308594 49.707031 60.488281 49.125 60.730469 C 48.542969 60.972656 47.992188 61.265625 47.464844 61.617188 C 46.941406 61.96875 46.457031 62.367188 46.011719 62.8125 C 45.566406 63.257812 45.167969 63.742188 44.816406 64.265625 C 44.46875 64.789062 44.171875 65.34375 43.929688 65.925781 C 43.691406 66.507812 43.507812 67.109375 43.382812 67.726562 C 43.261719 68.34375 43.199219 68.96875 43.199219 69.597656 L 43.199219 72 C 43.199219 72.3125 43.230469 72.625 43.292969 72.933594 C 43.355469 73.246094 43.445312 73.542969 43.566406 73.835938 C 43.6875 74.125 43.832031 74.402344 44.007812 74.664062 C 44.183594 74.925781 44.382812 75.171875 44.605469 75.394531 C 44.828125 75.617188 45.070312 75.816406 45.332031 75.988281 C 45.59375 76.164062 45.871094 76.3125 46.164062 76.433594 C 46.453125 76.554688 46.753906 76.644531 47.0625 76.707031 C 47.371094 76.769531 47.683594 76.796875 48 76.796875 L 48 88.796875 C 48 89.585938 48.078125 90.367188 48.234375 91.136719 C 48.386719 91.910156 48.613281 92.660156 48.917969 93.386719 C 49.21875 94.117188 49.589844 94.804688 50.027344 95.460938 C 50.464844 96.117188 50.960938 96.722656 51.519531 97.277344 C 52.074219 97.835938 52.679688 98.332031 53.335938 98.769531 C 53.992188 99.207031 54.683594 99.578125 55.410156 99.878906 C 56.136719 100.183594 56.886719 100.410156 57.660156 100.566406 C 58.433594 100.71875 59.210938 100.796875 60 100.796875 L 84 100.796875 C 84.785156 100.796875 85.566406 100.71875 86.339844 100.566406 C 87.109375 100.410156 87.859375 100.183594 88.589844 99.878906 C 89.316406 99.578125 90.007812 99.207031 90.660156 98.769531 C 91.316406 98.332031 91.921875 97.835938 92.480469 97.277344 C 93.035156 96.722656 93.535156 96.117188 93.972656 95.460938 C 94.410156 94.804688 94.777344 94.117188 95.082031 93.386719 C 95.382812 92.660156 95.609375 91.910156 95.765625 91.136719 C 95.917969 90.367188 95.996094 89.585938 95.996094 88.796875 L 95.996094 76.796875 C 96.3125 76.796875 96.625 76.769531 96.933594 76.707031 C 97.242188 76.644531 97.542969 76.554688 97.835938 76.433594 C 98.125 76.3125 98.402344 76.164062 98.664062 75.988281 C 98.925781 75.816406 99.167969 75.617188 99.390625 75.394531 C 99.613281 75.171875 99.8125 74.925781 99.988281 74.664062 C 100.164062 74.402344 100.3125 74.125 100.433594 73.835938 C 100.554688 73.542969 100.644531 73.246094 100.707031 72.933594 C 100.765625 72.625 100.796875 72.3125 100.796875 72 L 100.796875 69.597656 C 100.796875 68.96875 100.734375 68.34375 100.613281 67.726562 C 100.488281 67.109375 100.308594 66.507812 100.066406 65.925781 C 99.824219 65.34375 99.53125 64.789062 99.179688 64.265625 C 98.828125 63.742188 98.433594 63.257812 97.984375 62.8125 C 97.539062 62.367188 97.054688 61.96875 96.53125 61.617188 C 96.007812 61.265625 95.453125 60.972656 94.871094 60.730469 C 94.289062 60.488281 93.6875 60.308594 93.070312 60.183594 C 92.453125 60.0625 91.828125 60 91.199219 60 Z M 72 48 C 72.316406 48 72.625 48.0625 72.917969 48.183594 C 73.210938 48.304688 73.472656 48.476562 73.695312 48.703125 C 73.921875 48.929688 74.09375 49.1875 74.214844 49.480469 C 74.335938 49.773438 74.398438 50.082031 74.398438 50.398438 C 74.105469 52.976562 73.304688 55.386719 72 57.628906 C 70.691406 55.386719 69.890625 52.976562 69.597656 50.398438 C 69.597656 50.082031 69.660156 49.773438 69.78125 49.480469 C 69.902344 49.1875 70.078125 48.929688 70.300781 48.703125 C 70.527344 48.476562 70.785156 48.304688 71.082031 48.183594 C 71.375 48.0625 71.679688 48 72 48 Z M 48 69.597656 C 48 69.285156 48.03125 68.972656 48.09375 68.664062 C 48.152344 68.351562 48.246094 68.054688 48.363281 67.761719 C 48.484375 67.472656 48.632812 67.195312 48.808594 66.933594 C 48.984375 66.671875 49.183594 66.429688 49.40625 66.203125 C 49.628906 65.980469 49.871094 65.78125 50.132812 65.609375 C 50.394531 65.433594 50.671875 65.285156 50.960938 65.164062 C 51.253906 65.042969 51.554688 64.953125 51.863281 64.890625 C 52.171875 64.828125 52.484375 64.800781 52.800781 64.800781 L 69.597656 64.800781 L 69.597656 72 L 48 72 Z M 52.800781 88.796875 L 52.800781 76.796875 L 69.597656 76.796875 L 69.597656 95.996094 L 60 95.996094 C 59.527344 95.996094 59.058594 95.953125 58.59375 95.859375 C 58.132812 95.765625 57.679688 95.628906 57.242188 95.449219 C 56.808594 95.269531 56.390625 95.046875 56 94.785156 C 55.605469 94.523438 55.242188 94.222656 54.910156 93.890625 C 54.574219 93.554688 54.277344 93.191406 54.011719 92.796875 C 53.75 92.40625 53.527344 91.988281 53.347656 91.554688 C 53.167969 91.117188 53.03125 90.667969 52.9375 90.203125 C 52.847656 89.738281 52.800781 89.269531 52.800781 88.796875 Z M 91.199219 88.796875 C 91.199219 89.269531 91.152344 89.738281 91.058594 90.203125 C 90.96875 90.667969 90.832031 91.117188 90.648438 91.554688 C 90.46875 91.988281 90.246094 92.40625 89.984375 92.796875 C 89.722656 93.191406 89.421875 93.554688 89.089844 93.890625 C 88.753906 94.222656 88.390625 94.523438 88 94.785156 C 87.605469 95.046875 87.191406 95.269531 86.753906 95.449219 C 86.316406 95.628906 85.867188 95.765625 85.402344 95.859375 C 84.9375 95.953125 84.472656 95.996094 84 95.996094 L 74.398438 95.996094 L 74.398438 76.796875 L 91.199219 76.796875 Z M 74.398438 72 L 74.398438 64.800781 L 91.199219 64.800781 C 91.511719 64.800781 91.824219 64.828125 92.132812 64.890625 C 92.445312 64.953125 92.742188 65.042969 93.035156 65.164062 C 93.324219 65.285156 93.601562 65.433594 93.863281 65.609375 C 94.125 65.78125 94.371094 65.980469 94.59375 66.203125 C 94.816406 66.429688 95.015625 66.671875 95.1875 66.933594 C 95.363281 67.195312 95.511719 67.472656 95.632812 67.761719 C 95.753906 68.054688 95.84375 68.351562 95.90625 68.664062 C 95.96875 68.972656 95.996094 69.285156 95.996094 69.597656 L 95.996094 72 Z M 74.398438 72 " fill-opacity="1" fill-rule="nonzero"/></g></svg>