<svg xmlns="http://www.w3.org/2000/svg" xmlns:xlink="http://www.w3.org/1999/xlink" width="192" zoomAndPan="magnify" viewBox="0 0 144 143.999998" height="192" preserveAspectRatio="xMidYMid meet" version="1.0"><defs><clipPath id="6be6a8ed95"><path d="M 52 43.199219 L 92 43.199219 L 92 100.949219 L 52 100.949219 Z M 52 43.199219 " clip-rule="nonzero"/></clipPath></defs><g clip-path="url(#6be6a8ed95)"><path fill="#ffffff" d="M 70.175781 100.796875 C 69.378906 100.792969 68.621094 100.625 67.898438 100.289062 C 67.316406 100.03125 66.800781 99.675781 66.347656 99.226562 C 65.894531 98.78125 65.535156 98.265625 65.269531 97.6875 C 65.003906 97.109375 64.851562 96.5 64.808594 95.863281 C 64.765625 95.230469 64.835938 94.605469 65.019531 93.996094 L 68.765625 81.597656 L 59.9375 81.597656 C 59.660156 81.597656 59.378906 81.582031 59.101562 81.550781 C 58.824219 81.519531 58.546875 81.46875 58.273438 81.40625 C 58.003906 81.339844 57.734375 81.261719 57.472656 81.164062 C 57.207031 81.070312 56.949219 80.957031 56.699219 80.832031 C 56.449219 80.707031 56.207031 80.566406 55.972656 80.414062 C 55.738281 80.257812 55.515625 80.09375 55.300781 79.914062 C 55.085938 79.730469 54.882812 79.539062 54.691406 79.335938 C 54.5 79.132812 54.320312 78.917969 54.152344 78.691406 C 53.984375 78.46875 53.832031 78.234375 53.691406 77.992188 C 53.550781 77.75 53.425781 77.5 53.316406 77.242188 C 53.207031 76.984375 53.109375 76.71875 53.03125 76.453125 C 52.949219 76.183594 52.886719 75.910156 52.839844 75.636719 C 52.789062 75.359375 52.757812 75.082031 52.742188 74.800781 C 52.726562 74.523438 52.726562 74.242188 52.746094 73.960938 C 52.761719 73.683594 52.792969 73.40625 52.84375 73.128906 C 52.894531 72.851562 52.957031 72.582031 53.039062 72.3125 L 60.296875 48.3125 C 60.519531 47.570312 60.851562 46.882812 61.296875 46.25 C 61.738281 45.617188 62.273438 45.066406 62.894531 44.605469 C 63.519531 44.144531 64.195312 43.792969 64.933594 43.554688 C 65.667969 43.3125 66.425781 43.195312 67.199219 43.199219 L 76.0625 43.199219 C 76.3125 43.199219 76.5625 43.214844 76.8125 43.246094 C 77.0625 43.277344 77.308594 43.320312 77.550781 43.382812 C 77.792969 43.441406 78.035156 43.515625 78.269531 43.605469 C 78.503906 43.695312 78.730469 43.796875 78.953125 43.914062 C 79.175781 44.03125 79.390625 44.160156 79.597656 44.300781 C 79.804688 44.445312 80 44.597656 80.1875 44.765625 C 80.375 44.929688 80.554688 45.109375 80.722656 45.296875 C 80.886719 45.484375 81.042969 45.679688 81.183594 45.886719 C 81.328125 46.09375 81.457031 46.304688 81.574219 46.527344 C 81.691406 46.75 81.796875 46.976562 81.886719 47.210938 C 81.976562 47.445312 82.050781 47.6875 82.109375 47.929688 C 82.171875 48.171875 82.21875 48.417969 82.25 48.667969 C 82.28125 48.917969 82.296875 49.167969 82.296875 49.417969 C 82.296875 49.667969 82.28125 49.917969 82.253906 50.167969 C 82.222656 50.417969 82.179688 50.664062 82.121094 50.90625 C 82.0625 51.152344 81.988281 51.390625 81.902344 51.625 L 77.863281 62.398438 L 84 62.398438 C 84.652344 62.398438 85.292969 62.488281 85.925781 62.660156 C 86.554688 62.835938 87.148438 63.09375 87.710938 63.429688 C 88.269531 63.765625 88.777344 64.171875 89.226562 64.648438 C 89.675781 65.121094 90.054688 65.648438 90.359375 66.226562 C 90.667969 66.804688 90.890625 67.414062 91.03125 68.050781 C 91.171875 68.691406 91.222656 69.335938 91.1875 69.988281 C 91.152344 70.644531 91.03125 71.277344 90.820312 71.898438 C 90.613281 72.519531 90.324219 73.097656 89.957031 73.640625 L 74.597656 98.359375 C 74.117188 99.113281 73.480469 99.707031 72.695312 100.140625 C 71.910156 100.574219 71.070312 100.792969 70.175781 100.796875 Z M 70.175781 100.796875 " fill-opacity="1" fill-rule="nonzero"/></g></svg>