<svg xmlns="http://www.w3.org/2000/svg" xmlns:xlink="http://www.w3.org/1999/xlink" width="192" zoomAndPan="magnify" viewBox="0 0 144 143.999998" height="192" preserveAspectRatio="xMidYMid meet" version="1.0"><path fill="#013220" d="M 90.664062 61.964844 L 89.671875 61.964844 L 89.671875 50.199219 C 89.671875 49.148438 88.976562 48.226562 87.972656 47.941406 C 76.925781 44.816406 67.070312 44.816406 56.023438 47.941406 C 55.019531 48.226562 54.324219 49.148438 54.324219 50.199219 L 54.324219 61.964844 L 53.335938 61.964844 C 49.902344 61.964844 47.109375 64.761719 47.109375 68.203125 L 47.109375 70.214844 C 47.109375 75.824219 51.660156 80.390625 57.257812 80.390625 L 61.605469 80.390625 C 62.351562 80.894531 63.140625 81.335938 63.972656 81.71875 C 65.214844 82.289062 65.859375 83.695312 65.503906 85.066406 L 63.890625 91.199219 L 59.777344 91.199219 C 57.789062 91.199219 56.175781 92.8125 56.175781 94.800781 C 56.175781 96.789062 57.789062 98.398438 59.777344 98.398438 L 84.222656 98.398438 C 86.207031 98.398438 87.820312 96.789062 87.820312 94.800781 C 87.820312 92.8125 86.207031 91.199219 84.222656 91.199219 L 80.105469 91.199219 L 78.496094 85.070312 C 78.136719 83.695312 78.78125 82.289062 80.027344 81.71875 C 80.859375 81.339844 81.648438 80.894531 82.390625 80.390625 L 86.742188 80.390625 C 92.335938 80.390625 96.886719 75.824219 96.886719 70.214844 L 96.886719 68.203125 C 96.886719 64.761719 94.097656 61.964844 90.664062 61.964844 Z M 51.910156 70.214844 L 51.910156 68.203125 C 51.910156 67.410156 52.550781 66.765625 53.335938 66.765625 L 54.328125 66.765625 C 54.351562 69.945312 55.285156 72.992188 56.933594 75.578125 C 54.136719 75.410156 51.910156 73.066406 51.910156 70.210938 Z M 92.089844 70.214844 C 92.089844 73.070312 89.863281 75.410156 87.066406 75.578125 C 88.714844 72.996094 89.648438 69.949219 89.671875 66.765625 L 90.664062 66.765625 C 91.449219 66.765625 92.089844 67.414062 92.089844 68.207031 Z M 92.089844 70.214844 " fill-opacity="1" fill-rule="nonzero"/></svg>